# xmcd
#
# Track frame offsets:
#    150
#    22187
#    51205
#    74220
#    93513
#    114990
#    140288
#    167071
#    188015
#    207272
#    236696
#    280134
#    297272
#
# Disc length: 4267 seconds
#
# Revision: 1
# Processed by: cddbd v1.5.1PL2 Copyright (c) Steve Scherf et al.
# Submitted via: dBpowerAMP V4.0
#
DISCID=c610a90d
DTITLE=Stevie Ray Vaughan and Double Trouble - Live Alive
DYEAR=1900
DGENRE=Blues
TTITLE0=Say What
TTITLE1=Ain't gone 'n' give up on love
TTITLE2=Pride and joy
TTITLE3=Mary had a little lamb
TTITLE4=Superstition
TTITLE5=I'm leaving you (commit a crime)
TTITLE6=Cold shot
TTITLE7=Willie the wimp
TTITLE8=Look a little sister
TTITLE9=Texas flood
TTITLE10=Voodoo chile (Slight return)
TTITLE11=Love struck baby
TTITLE12=Change it
EXTD=
EXTT0=
EXTT1=
EXTT2=
EXTT3=
EXTT4=
EXTT5=
EXTT6=
EXTT7=
EXTT8=
EXTT9=
EXTT10=
EXTT11=
EXTT12=
PLAYORDER=
